<?xml version="1.0" encoding="UTF-8"?>
<svg version="1.1" xmlns="http://www.w3.org/2000/svg" width="3903" height="1175">
<path d="M0 0 C1.15242188 0.55042969 2.30484375 1.10085937 3.4921875 1.66796875 C43.78477456 21.65288028 65.77079097 59.21455457 85 98 C85.4125 97.01902344 85.825 96.03804688 86.25 95.02734375 C95.36499329 73.60188642 106.63882919 54.73143776 123 38 C123.93211098 37.00756246 124.86308582 36.01405672 125.79296875 35.01953125 C152.12941813 7.2688334 189.44793585 -8.28816048 227 -13 C227.74564209 -13.0942627 228.49128418 -13.18852539 229.25952148 -13.28564453 C275.85830625 -18.57526189 323.65341002 -7.18634993 361.05273438 21.44580078 C366.32303043 25.65225824 371.2050721 30.26603451 376 35 C376.56066162 35.54019775 377.12132324 36.08039551 377.69897461 36.63696289 C412.17669242 70.26994102 422.12372886 119.09964287 423.05227065 165.61871028 C423.11665189 171.70120417 423.09972424 177.78359663 423.07793391 183.86630452 C423.06454964 187.60512641 423.05740858 191.34392175 423.05153179 195.08276272 C423.0447212 199.3185318 423.0373438 203.55429714 423.02769333 207.79006082 C423.00073659 219.72594258 422.99312544 231.6617767 422.99160767 243.59768677 C422.99131147 245.52251508 422.99101104 247.44734339 422.9907065 249.3721717 C422.99024412 252.34149565 422.98978431 255.3108196 422.9893522 258.28014355 C422.98238575 301.67810999 422.93460118 345.07603676 422.87314438 388.47395647 C422.86438619 394.66728909 422.85583453 400.86062199 422.84741211 407.05395508 C422.84489352 408.90200453 422.84489352 408.90200453 422.84232404 410.78738832 C422.81544702 430.89424972 422.80654157 451.00108254 422.80395857 471.10796005 C422.80090099 491.86824369 422.77900935 512.62844529 422.73947543 533.38869184 C422.71577715 546.14089565 422.70664678 558.8929355 422.71648689 571.64515828 C422.72179561 580.34758773 422.70880699 589.04986908 422.6813371 597.75225634 C422.66604698 602.76654735 422.65883579 607.78050673 422.67340279 612.79480743 C422.68656194 617.38534782 422.67664578 621.97524534 422.64856227 626.56571334 C422.64245866 628.22292318 422.64473159 629.88019024 422.65637074 631.53737045 C422.71409512 640.45465288 422.64570868 648.56544115 417 656 C411.8821921 660.74999947 407.75917187 663.11567442 400.68183899 663.14717102 C399.57860794 663.15432632 398.47537689 663.16148163 397.3387146 663.16885376 C395.52229965 663.17288712 395.52229965 663.17288712 393.66918945 663.17700195 C391.75660088 663.18685875 391.75660088 663.18685875 389.80537415 663.19691467 C385.57468928 663.21793962 381.34400413 663.22831709 377.11328125 663.23828125 C375.65513782 663.2423297 374.19699459 663.24644665 372.73885155 663.25063133 C365.88631454 663.2696813 359.03378828 663.2839115 352.18122989 663.2922433 C344.28061261 663.30200878 336.38027602 663.32831081 328.47975761 663.36874419 C322.36751838 663.39894782 316.25535941 663.41371627 310.14304703 663.41702431 C306.49524011 663.41937041 302.84773311 663.42827252 299.20000648 663.45348549 C295.12575376 663.48119137 291.05212427 663.47692217 286.9777832 663.4699707 C285.77696106 663.48278076 284.57613892 663.49559082 283.33892822 663.50878906 C275.38212243 663.45934029 269.87249394 662.45421062 263.7578125 657 C263.21898437 656.34 262.68015625 655.68 262.125 655 C261.57070312 654.34 261.01640625 653.68 260.4453125 653 C257.34520599 648.71012289 256.75082197 645.75932879 256.75669765 640.42109585 C256.75368552 639.42700763 256.75368552 639.42700763 256.75061253 638.41283682 C256.74630597 636.1820566 256.75632726 633.95156912 256.76622009 631.72080994 C256.76606409 630.10888071 256.76502607 628.49695136 256.76317984 626.88502318 C256.76064212 622.44656893 256.77060093 618.00821597 256.7825278 613.56978023 C256.7932021 608.78454502 256.79232784 603.99931069 256.7928009 599.21406555 C256.79516665 590.91245458 256.80476176 582.61087704 256.81910515 574.30927849 C256.83980628 562.26839928 256.8484718 550.22753437 256.8540265 538.18663973 C256.86329337 518.60154912 256.88075365 499.01647514 256.90405273 479.43139648 C256.90544605 478.25855591 256.90683936 477.08571533 256.9082749 475.87733413 C256.90967043 474.70320969 256.91106596 473.52908526 256.91250378 472.3193813 C256.91532478 469.94454929 256.91814335 467.56971727 256.92095947 465.19488525 C256.9223548 464.01827726 256.92375012 462.84166926 256.92518773 461.62940648 C256.94046034 448.62297521 256.95338939 435.61654191 256.96557617 422.61010742 C256.96666702 421.44809718 256.96775787 420.28608693 256.96888178 419.08886426 C256.98699514 399.61506708 257.00092478 380.14126817 257.01274782 360.66746622 C257.02028605 348.68292434 257.03195528 336.69839971 257.04920948 324.71386779 C257.06090644 316.46633292 257.06901303 308.21879943 257.07447498 299.9712581 C257.07775979 295.23383735 257.08265044 290.49643419 257.09228897 285.75902176 C257.12611442 268.59730613 257.10778589 251.43937691 256.67604423 234.28203774 C256.63962715 232.83207107 256.60539286 231.38204729 256.5737422 229.93196874 C256.39894564 222.22791507 255.95026419 214.62950853 255.06672573 206.97758389 C254.98800224 206.2930725 254.90927876 205.60856112 254.82816971 204.90330696 C252.68014091 187.57505744 246.3122362 169.61540077 232.65625 158.0078125 C215.78777685 145.56998261 194.76559875 141.95202831 174.2265625 144.4609375 C159.94090506 147.00659973 147.60389988 152.21323188 136 161 C135.21109375 161.59296875 134.4221875 162.1859375 133.609375 162.796875 C113.15863381 179.52929961 106.12108624 206.45143298 103.33191609 231.62038743 C102.704457 238.009257 102.30378354 244.41134882 101.93392944 250.81929016 C101.86842538 251.94954952 101.86842538 251.94954952 101.801598 253.10264239 C100.80854869 270.67443164 100.71528805 288.22268914 100.74196196 305.8177315 C100.74660071 310.40286707 100.73940317 314.9879879 100.73365784 319.57312012 C100.72512585 327.47371718 100.72319156 335.37429189 100.72560501 343.27489281 C100.72873426 354.70581236 100.71695758 366.13668351 100.70105521 377.56759075 C100.67524707 396.13595785 100.65514344 414.70432498 100.64160156 433.27270508 C100.64079119 434.37827581 100.63998082 435.48384654 100.6391459 436.62291942 C100.62788218 452.37271083 100.62263148 468.12249867 100.61975877 483.87229357 C100.61955478 484.98605046 100.61935079 486.09980735 100.61914062 487.24731445 C100.61894069 488.35969324 100.61874075 489.47207202 100.61853476 490.61815926 C100.61480349 509.16057622 100.59574462 527.70293957 100.56404626 546.24532968 C100.54515619 557.65393576 100.53915485 569.06240429 100.54986344 580.47102169 C100.55617628 588.26770878 100.54815987 596.06429682 100.52880932 603.86096217 C100.51812253 608.35634374 100.51398517 612.85148471 100.52728081 617.3468647 C100.5393306 621.46200764 100.53298264 625.57669927 100.51208882 629.69180302 C100.50778699 631.17877249 100.51022008 632.66578018 100.52012999 634.15272286 C100.57606113 643.20233773 100.37227133 649.93325157 94.25390625 657.0234375 C84.92249085 664.47994957 75.31170181 664.15330477 63.77587891 664.10107422 C62.5715773 664.09949814 61.3672757 664.09792206 60.1264801 664.09629822 C56.15980161 664.08883218 52.19320159 664.07293992 48.2265625 664.0546875 C46.85358061 664.04888864 45.48059858 664.04312228 44.10761642 664.03738785 C38.39409793 664.01275155 32.68060588 663.98527537 26.96714211 663.95004082 C18.81356618 663.89982021 10.66032638 663.8664108 2.50659811 663.85675228 C-3.2475274 663.84858289 -9.0013756 663.82135254 -14.75535834 663.78014576 C-18.18292763 663.7560761 -21.61007018 663.74005185 -25.03773117 663.74441147 C-28.86472833 663.74459137 -32.69031037 663.71359857 -36.51708984 663.67529297 C-38.19757164 663.68587486 -38.19757164 663.68587486 -39.91200256 663.69667053 C-47.20768646 663.5808439 -52.9569185 662.24531155 -59 658 C-64.25974277 652.38294409 -66.12309438 648.09255638 -66.13307858 640.35165691 C-66.1353216 639.66930679 -66.13756463 638.98695666 -66.13987562 638.28392926 C-66.1462294 635.98058573 -66.14545067 633.67729857 -66.14476013 631.37394714 C-66.14789278 629.7123674 -66.15146733 628.05078845 -66.15544754 626.38921052 C-66.16516597 621.80942191 -66.16869941 617.22964577 -66.17129052 612.64984834 C-66.17517882 607.71486778 -66.18481703 602.77989829 -66.19384766 597.84492493 C-66.20880368 589.28518588 -66.22034113 580.72544771 -66.22979546 572.16570091 C-66.24366848 559.76569281 -66.26485849 547.3657051 -66.28822399 534.96571163 C-66.32617294 514.81723382 -66.36112374 494.66875228 -66.39282227 474.52026367 C-66.39472276 473.31354141 -66.39662325 472.10681915 -66.39858133 470.86352954 C-66.42535908 453.7743775 -66.44924457 436.68522263 -66.47196633 419.59606478 C-66.47356363 418.39510315 -66.47516094 417.19414152 -66.47680664 415.95678711 C-66.47919684 414.15754736 -66.47919684 414.15754736 -66.48163532 412.32195934 C-66.50846679 392.27306326 -66.54289761 372.22418864 -66.58346039 352.17531568 C-66.60815441 339.81999395 -66.62652623 327.46469524 -66.636616 315.1093528 C-66.64404608 306.6240699 -66.65863079 298.13881787 -66.67868023 289.65355548 C-66.68999468 284.76787952 -66.69821072 279.88225319 -66.69767189 274.99656296 C-65.81861531 213.94626559 -65.81861531 213.94626559 -91.65625 160.33203125 C-104.81817167 147.23591919 -121.70481264 142.75069014 -139.75 142.5625 C-159.60904772 142.67609431 -177.86803938 147.5316455 -192.25 161.99609375 C-214.40732418 185.565253 -219.16949355 220.53012466 -221.09732056 251.45959473 C-221.13974115 252.13821511 -221.18216175 252.81683549 -221.22586782 253.51602012 C-222.25951763 270.4668668 -222.28375174 287.40854708 -222.25803804 304.38499165 C-222.25341023 308.95995497 -222.26059153 313.53490333 -222.26634216 318.10986328 C-222.27488443 325.99741727 -222.27680583 333.88494886 -222.27439499 341.77250671 C-222.2712691 353.18464525 -222.2830313 364.59673518 -222.29894479 376.00886136 C-222.32476884 394.54561676 -222.34486379 413.08237219 -222.35839844 431.61914062 C-222.35961399 433.27555556 -222.35961399 433.27555556 -222.3608541 434.96543342 C-222.37211359 450.69076316 -222.37736734 466.41608934 -222.38024123 482.14142257 C-222.38044522 483.25297578 -222.38064921 484.36452899 -222.38085938 485.50976562 C-222.38105931 486.61994559 -222.38125925 487.73012555 -222.38146524 488.87394732 C-222.38519662 507.38010896 -222.4042577 525.88621689 -222.43595374 544.39235163 C-222.45484691 555.78156516 -222.46084321 567.1706409 -222.45013656 578.55986577 C-222.44382333 586.34536843 -222.45184124 594.1307719 -222.47119068 601.91625279 C-222.48187757 606.40553781 -222.48601479 610.89458191 -222.47271919 615.38386536 C-222.46066909 619.49357694 -222.46701789 623.60283664 -222.48791118 627.71250898 C-222.49221299 629.19754929 -222.48977999 630.68262787 -222.47987001 632.16764134 C-222.42393009 641.20696271 -222.66193592 647.85297292 -228.67578125 654.98828125 C-229.48595703 655.64376953 -229.48595703 655.64376953 -230.3125 656.3125 C-230.84488281 656.76238281 -231.37726563 657.21226562 -231.92578125 657.67578125 C-239.17942696 662.30663981 -245.32181113 662.4358922 -253.78491211 662.40405273 C-255.69837685 662.41434761 -255.69837685 662.41434761 -257.65049744 662.42485046 C-261.13405357 662.44272859 -264.61735708 662.44162369 -268.10094523 662.43590808 C-271.01585072 662.43280844 -273.93070822 662.43891727 -276.84560686 662.44494683 C-283.72548132 662.45897288 -290.60523156 662.45744683 -297.48510742 662.44604492 C-304.56809342 662.43456536 -311.65070069 662.44864074 -318.7336368 662.4754414 C-324.82899631 662.4976364 -330.92423727 662.50422726 -337.01963431 662.49836498 C-340.65393337 662.49500327 -344.28798972 662.49735777 -347.92225456 662.51461601 C-351.97697612 662.53303221 -356.03096623 662.51885922 -360.08569336 662.50170898 C-361.28023132 662.51137695 -362.47476929 662.52104492 -363.70550537 662.53100586 C-372.02603381 662.45739221 -377.31288847 661.18432359 -383.75 655.625 C-388.06435396 650.59158704 -391.12319392 646.35974948 -391.1276505 639.62267953 C-391.13066647 638.72066829 -391.13368244 637.81865704 -391.1367898 636.88931212 C-391.13502033 635.89515969 -391.13325086 634.90100727 -391.13142776 633.87672901 C-391.1334804 632.81874232 -391.13553303 631.76075564 -391.13764787 630.67070875 C-391.14334772 627.08969059 -391.14185695 623.50871053 -391.14044189 619.9276886 C-391.14302382 617.34867549 -391.1460365 614.76966279 -391.1494453 612.19065064 C-391.15703614 605.82297452 -391.15921891 599.45530678 -391.15977435 593.08762661 C-391.16068692 585.46347715 -391.1673513 577.83933548 -391.17412117 570.21518936 C-391.19019463 551.78583384 -391.19608597 533.35647913 -391.20086992 514.92711787 C-391.20320451 506.2116016 -391.20680701 497.496086 -391.2105653 488.78057026 C-391.22340197 458.95615067 -391.23412108 429.13173145 -391.2375679 399.30730915 C-391.23778954 397.43447401 -391.23801132 395.56163888 -391.23823325 393.68880374 C-391.2384539 391.81140024 -391.23867438 389.93399674 -391.2388947 388.05659324 C-391.23933726 384.29008885 -391.23978437 380.52358446 -391.24023438 376.75708008 C-391.24034377 375.82320328 -391.24045316 374.88932649 -391.24056586 373.9271504 C-391.24419711 343.64097405 -391.26011912 313.35482162 -391.28342474 283.06865443 C-391.3080102 251.06087727 -391.32174014 219.05311378 -391.32293582 187.04532689 C-391.32310728 183.53293081 -391.32332271 180.02053473 -391.32357025 176.50813866 C-391.32362602 175.64326534 -391.32368179 174.77839203 -391.32373925 173.88731043 C-391.32489082 159.95735452 -391.33592182 146.02742313 -391.35045731 132.0974755 C-391.36481017 118.10070232 -391.36806615 104.10396064 -391.36001733 90.10718212 C-391.35555534 81.78822595 -391.35944437 73.46937128 -391.37525584 65.1504284 C-391.38613022 58.94367388 -391.38138272 52.73702456 -391.37048396 46.53027215 C-391.36851626 44.0154299 -391.37165451 41.50057758 -391.38032833 38.98574952 C-391.39135199 35.57448067 -391.38398103 32.16373071 -391.3719368 28.75247669 C-391.37953199 27.7700301 -391.38712718 26.7875835 -391.39495254 25.7753658 C-391.34340904 19.03954006 -390.44364231 13.41747006 -386.421875 7.79296875 C-385.87015625 7.26316406 -385.3184375 6.73335937 -384.75 6.1875 C-384.20859375 5.64480469 -383.6671875 5.10210938 -383.109375 4.54296875 C-376.31886303 -0.42416501 -370.01828192 -0.43653085 -361.85766602 -0.40405273 C-360.65029785 -0.41091599 -359.44292969 -0.41777924 -358.19897461 -0.42485046 C-354.90339031 -0.43996884 -351.60816252 -0.44162537 -348.31255841 -0.43590808 C-345.55422759 -0.43280717 -342.79594742 -0.43891866 -340.03762382 -0.44494683 C-333.52691103 -0.45897008 -327.0163295 -0.45744919 -320.50561523 -0.44604492 C-313.80434211 -0.43456576 -307.1034693 -0.44864063 -300.40224892 -0.4754414 C-294.63384908 -0.49764176 -288.86557451 -0.50422606 -283.09713501 -0.49836498 C-279.65845041 -0.49500451 -276.22002236 -0.4973493 -272.78137398 -0.51461601 C-268.94452379 -0.52951678 -265.1085515 -0.51885392 -261.27172852 -0.50170898 C-260.14264572 -0.51137695 -259.01356293 -0.52104492 -257.8502655 -0.53100586 C-250.09214522 -0.45852746 -244.86522046 0.79469523 -238.7578125 5.859375 C-238.21898437 6.48328125 -237.68015625 7.1071875 -237.125 7.75 C-236.57070313 8.36359375 -236.01640625 8.9771875 -235.4453125 9.609375 C-232.00568086 15.29871165 -231.70060889 21.77333037 -231.68115234 28.25195312 C-231.66608391 29.42413391 -231.66608391 29.42413391 -231.65071106 30.61999512 C-231.62010089 33.17374003 -231.60290632 35.72738121 -231.5859375 38.28125 C-231.56720796 40.06344481 -231.54763324 41.84563093 -231.5272522 43.62780762 C-231.47611354 48.29657847 -231.43639052 52.96537802 -231.39910889 57.63427734 C-231.3589542 62.40729768 -231.30791437 67.18020055 -231.2578125 71.953125 C-231.16126974 81.30200059 -231.07679624 90.6509428 -231 100 C-230.69590714 99.29635315 -230.39181427 98.5927063 -230.07850647 97.86773682 C-228.67306076 94.62324638 -227.26040623 91.38194123 -225.84765625 88.140625 C-225.36961548 87.03412598 -224.89157471 85.92762695 -224.39904785 84.78759766 C-214.90300246 63.05264914 -202.01834601 44.5704948 -185 28 C-184.56171875 27.51660156 -184.1234375 27.03320312 -183.671875 26.53515625 C-140.6532812 -19.63378911 -54.67567474 -26.44395713 0 0 Z " fill="#FFFFFF" transform="translate(1056,19)"/>
<path d="M0 0 C1.80953407 -0.00855011 1.80953407 -0.00855011 3.65562439 -0.01727295 C6.20115296 -0.02666616 8.74669338 -0.03323414 11.29223633 -0.03710938 C15.09023776 -0.04671788 18.88767417 -0.07775694 22.68554688 -0.109375 C76.94837574 -0.34492062 137.6133709 11.21268531 182.08984375 44.203125 C183.14300781 44.96238281 184.19617188 45.72164062 185.28125 46.50390625 C223.18650243 74.54811763 243.63593929 114.51322694 250.70361328 160.49804688 C253.89455439 182.84673681 254.23851712 205.28793983 254.24755859 227.82202148 C254.25223692 230.46376747 254.25731719 233.10550961 254.26295471 235.74725342 C254.27438932 241.40270767 254.28268051 247.05815908 254.28907394 252.71362114 C254.29949231 261.67181684 254.32007682 270.62997666 254.3421936 279.58815002 C254.34967006 282.66549957 254.35708423 285.74284927 254.36448097 288.82019901 C254.36633154 289.58890538 254.3681821 290.35761176 254.37008875 291.14961226 C254.39094459 299.86674651 254.40980834 308.58388465 254.42773438 317.30102539 C254.43019165 318.49396591 254.43019165 318.49396591 254.43269856 319.71100623 C254.45898891 332.60097359 254.47763656 345.49094377 254.49432628 358.3809266 C254.51180485 371.66717726 254.5407041 384.95337248 254.57921565 398.23957878 C254.60247144 406.40638467 254.61659709 414.5731002 254.61854328 422.73993946 C254.62066812 428.34328628 254.63372485 433.94654338 254.65502261 439.5498498 C254.66693074 442.77053956 254.67262201 445.9910187 254.66831017 449.21173286 C254.64833267 466.98341799 255.40315798 484.3018797 260.77734375 501.390625 C261.15862427 502.62558716 261.15862427 502.62558716 261.54760742 503.88549805 C264.20543967 512.12469847 267.85237706 519.67311148 272.08984375 527.203125 C272.42854492 527.81430176 272.76724609 528.42547852 273.11621094 529.05517578 C279.63761312 540.72000105 287.54776907 551.38830189 295.50097656 562.10449219 C302.3461449 571.35842801 306.93327135 578.9806189 305.8046875 590.78125 C304.02272095 596.81851372 299.7791832 600.67586848 295.02734375 604.515625 C294.16689453 605.2271875 294.16689453 605.2271875 293.2890625 605.953125 C291.5624787 607.37793862 289.82739197 608.79171524 288.08984375 610.203125 C287.15269531 610.97011719 286.21554687 611.73710938 285.25 612.52734375 C283.46918575 613.98389814 281.68661682 615.43830971 279.90234375 616.890625 C276.2081092 619.92810674 272.56509269 623.02384546 268.92138672 626.12158203 C265.55133385 628.98159438 262.14958067 631.79568233 258.71484375 634.578125 C252.34970503 639.76077061 246.18087908 645.16344494 239.99072266 650.55224609 C234.71650423 655.13280929 229.40378267 659.6687668 224.08984375 664.203125 C223.52491211 664.68555664 222.95998047 665.16798828 222.37792969 665.66503906 C219.63420509 668.00578403 216.88468097 670.33897745 214.12109375 672.65625 C212.19204784 674.27704631 210.27401722 675.91111239 208.37109375 677.5625 C201.28099933 683.55844405 194.7146559 686.93687208 185.2578125 686.46484375 C175.44444144 685.28016652 169.10980759 678.56206039 162.08984375 672.203125 C161.51443848 671.68411621 160.9390332 671.16510742 160.34619141 670.63037109 C156.552797 667.1974398 152.80988621 663.71537217 149.08984375 660.203125 C148.07277344 659.24986328 148.07277344 659.24986328 147.03515625 658.27734375 C141.90660615 653.32604769 137.5130927 647.78153648 133.08984375 642.203125 C132.34089844 641.27113281 131.59195312 640.33914063 130.8203125 639.37890625 C121.93988532 628.11269267 114.04303913 616.13291807 106.08984375 604.203125 C103.06006946 605.55543687 101.00511762 607.05793043 98.69921875 609.43359375 C98.07644043 610.06813477 97.45366211 610.70267578 96.81201172 611.35644531 C96.16119629 612.02772461 95.51038086 612.69900391 94.83984375 613.390625 C89.75261773 618.55432328 84.65506643 623.55302498 79.08984375 628.203125 C77.75373047 629.37294922 77.75373047 629.37294922 76.390625 630.56640625 C38.82676006 663.29855549 -3.39428366 682.19106601 -52.91015625 688.203125 C-53.76706055 688.3077002 -54.62396484 688.41227539 -55.50683594 688.52001953 C-65.48076705 689.53558009 -75.52719003 689.42521114 -85.54199219 689.44335938 C-88.74310975 689.45299839 -91.94356538 689.48406896 -95.14453125 689.515625 C-112.96638901 689.60815096 -130.55605103 688.21673231 -147.78515625 683.390625 C-148.74164063 683.12910645 -149.698125 682.86758789 -150.68359375 682.59814453 C-192.7830752 670.82132386 -228.14376894 645.05014735 -249.9921875 606.90625 C-267.96669126 574.44672588 -274.357977 539.05920774 -274.28515625 502.328125 C-274.28461243 501.29365234 -274.2840686 500.25917969 -274.2835083 499.19335938 C-274.24414045 482.87680421 -273.45398104 467.1880942 -269.91015625 451.203125 C-269.58869629 449.71449951 -269.58869629 449.71449951 -269.26074219 448.19580078 C-257.70822246 396.19264611 -226.08946865 351.16981838 -181.38671875 322.23046875 C-113.07518039 279.29158528 -29.64509359 272.6891117 48.65234375 264.265625 C49.37863102 264.18744537 50.10491829 264.10926575 50.85321426 264.02871704 C55.68280964 263.50962319 60.51306078 262.99709655 65.34375 262.48828125 C66.57663757 262.35740616 67.80952515 262.22653107 69.07977295 262.09169006 C70.2117511 261.97385666 71.34372925 261.85602325 72.51000977 261.73461914 C73.49598648 261.63137833 74.4819632 261.52813751 75.49781799 261.42176819 C78.08984375 261.203125 78.08984375 261.203125 82.08984375 261.203125 C81.9957892 254.75148621 81.8883153 248.30016065 81.77246094 241.84887695 C81.73470022 239.66435532 81.69976667 237.47978258 81.66796875 235.29516602 C81.50230213 224.0427783 81.21522176 212.84230543 80.16796875 201.6328125 C80.09083649 200.79756546 80.01370422 199.96231842 79.93423462 199.10176086 C79.15851852 191.54144274 77.45381329 184.43564148 75.08984375 177.203125 C74.81527344 176.31753906 74.54070312 175.43195313 74.2578125 174.51953125 C68.34127428 157.6344336 55.06024099 145.02447561 39.27880859 137.31884766 C12.98503433 125.18379818 -16.81388103 126.75552692 -43.61328125 136.4765625 C-64.01800532 144.36723858 -80.99932058 159.79597896 -89.9765625 179.82714844 C-92.24662358 185.6044064 -93.83681347 191.63610572 -95.3894043 197.63964844 C-97.98592096 207.4683349 -101.42912028 215.22153792 -109.91015625 221.203125 C-119.85895275 226.17752325 -139.04969328 221.01765415 -149.7109375 219.8671875 C-152.00102135 219.62486553 -154.29115809 219.38304288 -156.5813446 219.14169312 C-161.35657476 218.63685 -166.13123232 218.12698154 -170.90551758 217.61328125 C-177.00831641 216.95690729 -183.11223309 216.31170261 -189.21659565 215.67005348 C-193.9363128 215.17296295 -198.65547159 214.67073002 -203.37447166 214.16688156 C-205.62487115 213.92707882 -207.87542054 213.68867846 -210.12612343 213.45174026 C-213.27255998 213.11957192 -216.41819987 212.78065845 -219.5637207 212.43994141 C-220.4818454 212.34427383 -221.39997009 212.24860626 -222.34591675 212.15003967 C-232.7944091 211.00176903 -241.77648147 209.60699319 -249.28515625 201.703125 C-253.60998815 195.04953746 -253.70182345 188.83248278 -252.37988281 181.10229492 C-251.62440285 177.67777701 -250.78966211 174.28541006 -249.91015625 170.890625 C-249.59618896 169.66239014 -249.28222168 168.43415527 -248.95874023 167.16870117 C-246.05881781 156.17045037 -242.39482992 145.6484409 -237.91015625 135.203125 C-237.5946582 134.460625 -237.27916016 133.718125 -236.95410156 132.953125 C-227.88442429 111.90019538 -215.1956644 93.2775841 -199.36962891 76.72998047 C-198.38507198 75.69996725 -197.40567485 74.66500041 -196.43115234 73.62548828 C-147.85769949 21.94056869 -69.09890502 0.26172066 0 0 Z M-37.91015625 381.203125 C-38.53954102 381.51862305 -39.16892578 381.83412109 -39.81738281 382.15917969 C-49.27079047 386.97318411 -57.11439866 393.09554463 -64.91015625 400.203125 C-65.58691406 400.79738281 -66.26367188 401.39164062 -66.9609375 402.00390625 C-84.63353203 418.37644785 -93.7670772 444.56317601 -95.13330078 468.03710938 C-95.249298 472.13668214 -95.29681336 476.22729622 -95.28515625 480.328125 C-95.28461243 481.05134949 -95.2840686 481.77457397 -95.2835083 482.51971436 C-95.24352718 494.11263895 -94.48607822 505.10796985 -90.91015625 516.203125 C-90.58869629 517.20980225 -90.58869629 517.20980225 -90.26074219 518.23681641 C-84.38555238 535.90086961 -72.77596678 551.81316907 -56.19140625 560.73828125 C-35.5887236 569.93590743 -13.52208633 570.65369463 7.71484375 563.015625 C20.52285782 557.6802718 30.29602473 550.89928486 40.08984375 541.203125 C40.89164063 540.46191406 41.6934375 539.72070312 42.51953125 538.95703125 C62.81186489 519.82325645 73.27126596 491.64081705 78.90234375 464.953125 C79.09747559 464.05174805 79.29260742 463.15037109 79.49365234 462.22167969 C83.8545255 439.78223529 83.3612014 416.71594321 83.22717285 393.96429443 C83.20628551 390.02765132 83.19748992 386.09098005 83.1875 382.15429688 C83.16639235 374.50383286 83.13250735 366.85350254 83.08984375 359.203125 C42.24626331 359.05773986 -0.96725358 362.39283197 -37.91015625 381.203125 Z " fill="#FFFFFF" transform="translate(273.91015625,-0.203125)"/>
<path d="M0 0 C1.22309875 -0.00794586 2.44619751 -0.01589172 3.70635986 -0.02407837 C71.15536762 -0.36019924 140.77127256 16.90517609 190 65.125 C232.70964646 107.96123106 238.21077571 168.54432688 238.14624023 226.07568359 C238.15064237 228.72536807 238.1558422 231.3750396 238.16207886 234.02471924 C238.173973 239.67019548 238.17922365 245.31564384 238.17996025 250.96113205 C238.18130301 259.14584496 238.19656018 267.33049163 238.21545542 275.51518078 C238.24611042 288.83319171 238.27036333 302.15120432 238.28833008 315.46923828 C238.28940276 316.26190844 238.29047544 317.0545786 238.29158062 317.87126906 C238.30340821 326.72016743 238.31361825 335.56906647 238.32202148 344.41796875 C238.32509633 347.63297528 238.32818499 350.84798179 238.33129883 354.06298828 C238.33206417 354.85648408 238.33282951 355.64997987 238.33361804 356.467521 C238.34675026 369.75180128 238.37144899 383.03603277 238.40504223 396.32027686 C238.42517763 404.4746306 238.43564328 412.6288796 238.43305302 420.78325839 C238.43200907 426.3743796 238.44179533 431.96541827 238.45969205 437.55651061 C238.46961804 440.76738975 238.47331557 443.97805238 238.46692467 447.18894577 C238.40306039 483.06285958 245.00826221 513.62238753 265.875 543.375 C266.34196289 544.0448291 266.80892578 544.7146582 267.29003906 545.40478516 C271.65235175 551.64985495 276.04680247 557.87212864 280.53515625 564.02734375 C286.64927393 572.48950544 290.90633962 579.71782396 289.875 590.375 C287.34107834 600.32969225 277.25994981 606.15232405 269.5703125 612.21484375 C265.90469314 615.15265173 262.33479634 618.19735719 258.75805664 621.2421875 C255.37168856 624.12057559 251.95415348 626.9528029 248.5 629.75 C242.13486128 634.93264561 235.96603533 640.33531994 229.77587891 645.72412109 C221.80987224 652.64245362 213.78346362 659.49361088 205.7097168 666.28588867 C202.9347709 668.62141522 200.18025924 670.97591486 197.453125 673.3671875 C189.71259243 680.11690533 182.38578061 686.39275294 171.625 686.625 C170.91859375 686.65078125 170.2121875 686.6765625 169.484375 686.703125 C162.48198202 685.82258457 157.44518664 682.72781634 152.3125 678.0625 C151.72243164 677.54051025 151.13236328 677.01852051 150.52441406 676.48071289 C148.62821273 674.79273461 146.75037428 673.08606946 144.875 671.375 C144.2351416 670.79685547 143.5952832 670.21871094 142.93603516 669.62304688 C123.78039627 652.27780554 108.8289718 632.72922607 94.62231445 611.18237305 C93.73225708 609.84686401 93.73225708 609.84686401 92.82421875 608.484375 C92.30174561 607.68999023 91.77927246 606.89560547 91.2409668 606.07714844 C90.79019775 605.51543945 90.33942871 604.95373047 89.875 604.375 C87.73633732 604.15486224 87.73633732 604.15486224 86.12255859 605.91625977 C85.42984863 606.62580811 84.73713867 607.33535645 84.0234375 608.06640625 C83.25386719 608.84693359 82.48429687 609.62746094 81.69140625 610.43164062 C80.88574219 611.25857422 80.08007812 612.08550781 79.25 612.9375 C73.64474709 618.66741669 67.97929249 624.17854644 61.875 629.375 C60.88757812 630.24382813 59.90015625 631.11265625 58.8828125 632.0078125 C40.88810808 647.56421009 21.3674843 660.23786776 -0.125 670.375 C-1.25292969 670.90996094 -2.38085938 671.44492187 -3.54296875 671.99609375 C-17.48710317 678.28975348 -32.08646788 682.16159596 -47.0625 685.125 C-48.04831055 685.32359619 -49.03412109 685.52219238 -50.04980469 685.72680664 C-67.39780848 688.97990565 -84.87863516 689.72779532 -102.49072266 689.69067383 C-105.62307239 689.68750195 -108.7544837 689.7111431 -111.88671875 689.73632812 C-125.21019925 689.77816798 -138.01132569 688.73241467 -151.125 686.375 C-152.74245117 686.08484009 -152.74245117 686.08484009 -154.39257812 685.78881836 C-156.82164759 685.31078073 -159.22104487 684.77794969 -161.625 684.1875 C-162.47626465 683.97955811 -163.3275293 683.77161621 -164.20458984 683.55737305 C-186.65321139 677.80421907 -207.9078418 667.71964852 -226.125 653.375 C-226.67349609 652.94606445 -227.22199219 652.51712891 -227.78710938 652.07519531 C-264.87994493 622.74445958 -283.90992826 578.38297726 -289.38525391 532.17881775 C-290.03356859 526.22812697 -290.29749577 520.34677433 -290.328125 514.36328125 C-290.33518463 513.44054413 -290.34224426 512.51780701 -290.34951782 511.56710815 C-290.635994 463.14245722 -282.95078639 415.21664734 -253.125 375.375 C-252.70428223 374.80313965 -252.28356445 374.2312793 -251.85009766 373.64208984 C-236.60669937 353.04832177 -218.41188877 336.52048093 -197.125 322.375 C-196.2275708 321.77824463 -196.2275708 321.77824463 -195.31201172 321.16943359 C-126.4540544 276.12965261 -36.39231628 272.00788977 42.99876595 263.36860657 C44.6468735 263.18923219 46.29491918 263.00928835 47.9428997 262.82875061 C50.21600576 262.58024343 52.48940841 262.33467247 54.76293945 262.09008789 C56.04521927 261.95131729 57.32749908 261.81254669 58.64863586 261.66957092 C61.875 261.375 61.875 261.375 65.875 261.375 C65.78138336 254.44118975 65.67393771 247.50768489 65.55761719 240.57421875 C65.51972599 238.22368016 65.48480999 235.87309138 65.453125 233.52246094 C64.91396896 190.45382533 64.91396896 190.45382533 44.875 153.375 C44.34390625 152.76269531 43.8128125 152.15039062 43.265625 151.51953125 C30.92808119 138.212609 10.39863588 130.16304907 -7.56811523 129.25097656 C-37.63950599 128.3999738 -66.37587915 134.29977576 -89.125 155.375 C-101.3641901 167.90866686 -107.42015351 182.4080373 -112.140625 198.9296875 C-114.93610856 208.53638896 -117.94898353 215.37925459 -126.125 221.375 C-136.0737965 226.34939825 -155.26453703 221.18952915 -165.92578125 220.0390625 C-168.2158651 219.79674053 -170.50600184 219.55491788 -172.79618835 219.31356812 C-177.57141851 218.808725 -182.34607607 218.29885654 -187.12036133 217.78515625 C-193.22316016 217.12878229 -199.32707684 216.48357761 -205.4314394 215.84192848 C-210.15115655 215.34483795 -214.87031534 214.84260502 -219.58931541 214.33875656 C-221.8397149 214.09895382 -224.09026429 213.86055346 -226.34096718 213.62361526 C-229.48740373 213.29144692 -232.63304362 212.95253345 -235.77856445 212.61181641 C-236.69668915 212.51614883 -237.61481384 212.42048126 -238.5607605 212.32191467 C-248.76229477 211.20078428 -258.41378002 209.90435617 -265.54296875 201.75390625 C-269.68444326 195.75848648 -269.81736257 189.65435704 -268.6875 182.67089844 C-268.06095145 179.67933523 -267.36236379 176.71620285 -266.625 173.75 C-266.35800293 172.66332031 -266.09100586 171.57664063 -265.81591797 170.45703125 C-256.47031875 133.60836363 -239.35868973 101.84365658 -213.125 74.375 C-212.25230469 73.44945313 -211.37960937 72.52390625 -210.48046875 71.5703125 C-170.80108722 30.55472924 -113.1198351 11.70873639 -58.125 3.375 C-57.09568359 3.20983887 -56.06636719 3.04467773 -55.00585938 2.87451172 C-36.75466192 0.05158978 -18.42704754 0.06276661 0 0 Z M-84.4375 402.3125 C-100.30788133 418.46361637 -109.42465034 440.01861678 -112.125 462.375 C-112.23585938 463.2515625 -112.34671875 464.128125 -112.4609375 465.03125 C-115.53405753 493.27073135 -110.84595979 522.11289246 -93.16796875 544.98828125 C-81.21249267 558.95538619 -65.18588054 566.23252304 -47.125 568.375 C-22.50390162 569.84491632 -0.24059778 562.18585376 18.25 545.8125 C19.79928216 544.34131173 21.341526 542.86265844 22.875 541.375 C23.53628906 540.7871875 24.19757813 540.199375 24.87890625 539.59375 C48.48059227 517.85159075 59.44659897 482.73619031 63.625 451.9375 C63.79854004 450.67244629 63.79854004 450.67244629 63.97558594 449.38183594 C66.37659376 429.74319746 66.00934479 409.86422354 65.94366455 390.11932373 C65.933233 386.63880034 65.92882553 383.15826906 65.92382812 379.67773438 C65.91326492 372.91013774 65.89631496 366.14257113 65.875 359.375 C14.21701324 359.1825623 -45.61362449 364.21773964 -84.4375 402.3125 Z " fill="#FFFFFF" transform="translate(1873.125,-0.375)"/>
<path d="M0 0 C2.99811662 2.67864135 5.89721257 5.44934527 8.7890625 8.2421875 C9.57925781 8.98082031 10.36945312 9.71945313 11.18359375 10.48046875 C52.65519432 50.20895476 60.34084355 114.13034085 61.8551639 168.62074092 C62.13471508 181.81489793 62.09563246 195.01508634 62.09448898 208.21150744 C62.09616106 213.79471892 62.10926929 219.37790686 62.12068176 224.96110535 C62.14332875 237.10829787 62.15142707 249.25547272 62.15650821 261.4026835 C62.15978264 268.99561777 62.16631459 276.58854706 62.1735096 284.1814785 C62.19303236 305.23993536 62.20954878 326.29838837 62.21238613 347.35685444 C62.21248019 348.02728823 62.21257425 348.69772202 62.21267116 349.38847199 C62.21304959 352.10476507 62.21341359 354.82105815 62.21377414 357.53735123 C62.21404585 359.5812973 62.21432254 361.62524338 62.21459961 363.66918945 C62.21468763 364.34457763 62.21477565 365.01996581 62.21486634 365.7158203 C62.21787347 387.67996582 62.24229759 409.64401419 62.27961476 431.60812652 C62.31909701 454.88936655 62.34053409 478.17054478 62.34084564 501.4518258 C62.34143022 514.12226849 62.34992618 526.79259435 62.37884331 539.46300697 C62.40330827 550.23065898 62.41067155 560.99815131 62.39559578 571.76582358 C62.38841257 577.25763078 62.3893467 582.74912224 62.41200638 588.24089432 C62.43254608 593.26670989 62.43004304 598.29196586 62.40913153 603.31777503 C62.4056276 605.1360198 62.41058475 606.95430456 62.42483597 608.77249686 C62.548223 625.59717262 62.548223 625.59717262 56.7890625 632.2421875 C54.65625 634.30078125 54.65625 634.30078125 52.6640625 635.6796875 C52.00148438 636.15277344 51.33890625 636.62585938 50.65625 637.11328125 C47.23461838 639.18200832 44.38872592 639.37336945 40.48435974 639.39608765 C38.83384865 639.40898834 38.83384865 639.40898834 37.1499939 639.42214966 C35.33829208 639.42853958 35.33829208 639.42853958 33.48999023 639.43505859 C32.21814377 639.44323608 30.9462973 639.45141357 29.63591003 639.45983887 C25.41484694 639.48603767 21.19377406 639.50136919 16.97265625 639.515625 C15.51703447 639.52098647 14.06141275 639.52636399 12.60579109 639.53175735 C6.54680331 639.55338725 0.48781815 639.57212042 -5.57119846 639.58337975 C-14.23883288 639.59959474 -22.90601729 639.63271099 -31.5734821 639.68978059 C-37.67555914 639.72857994 -43.77751637 639.74802447 -49.87971348 639.75330031 C-53.51983742 639.75694156 -57.15948118 639.76882962 -60.7994709 639.80140305 C-64.86861675 639.83729368 -68.93680592 639.83308763 -73.00610352 639.82568359 C-74.19973511 639.84208893 -75.3933667 639.85849426 -76.62316895 639.87539673 C-84.9499518 639.81355631 -91.95235013 638.28751201 -98.15154362 632.39876366 C-102.76022267 627.31815486 -104.46018338 623.49092271 -104.4670639 616.541646 C-104.47046077 615.86579432 -104.47385764 615.18994263 -104.47735745 614.49361059 C-104.48635443 612.21829945 -104.48108557 609.94324295 -104.47595215 607.66792297 C-104.47952157 606.02411624 -104.4839716 604.38031123 -104.48922873 602.73650903 C-104.50117892 598.21035906 -104.50070711 593.6842813 -104.49829364 589.15811932 C-104.49787495 584.27898967 -104.50896553 579.39988515 -104.51875305 574.52076721 C-104.53422906 566.05872282 -104.54262255 557.59669514 -104.54646301 549.13463783 C-104.55221165 536.87263761 -104.5708029 524.61068218 -104.59290355 512.34870174 C-104.62865639 492.4194055 -104.65694917 472.49010672 -104.67919922 452.56079102 C-104.68053421 451.36738364 -104.6818692 450.17397627 -104.68324465 448.94440504 C-104.69266455 440.48116606 -104.70182362 432.01792681 -104.7109375 423.5546875 C-104.72132095 413.92358376 -104.73184428 404.2924802 -104.74267578 394.66137695 C-104.74400652 393.4757907 -104.74533727 392.29020446 -104.74670833 391.06869135 C-104.7692055 371.24010367 -104.79943901 351.41153482 -104.83506823 331.58296651 C-104.85664336 319.36807988 -104.87132866 307.15322259 -104.87690699 294.93831798 C-104.88118228 286.5460019 -104.89249308 278.15371367 -104.90913093 269.76141308 C-104.91845684 264.93206356 -104.92468027 260.10276602 -104.92206764 255.27340698 C-103.8151976 191.75681477 -103.8151976 191.75681477 -129.86328125 135.58984375 C-142.86200974 122.59111526 -159.84226489 117.18119134 -177.8984375 116.8671875 C-198.56836572 116.94267242 -215.94928126 125.4374874 -230.7265625 139.6640625 C-271.15845983 181.58425052 -267.39519934 252.79912216 -267.32359183 306.76639485 C-267.31917838 310.99653583 -267.3207909 315.22667508 -267.32183838 319.45681763 C-267.32294866 325.81558011 -267.32234109 332.17433822 -267.31963757 338.53310023 C-267.31446545 351.01035355 -267.32294456 363.48756721 -267.33625793 375.96481323 C-267.33830413 377.93919885 -267.34034647 379.91358447 -267.34238499 381.88797009 C-267.34653892 385.88079966 -267.3507536 389.87362917 -267.35499251 393.86645865 C-267.3657485 404.07324366 -267.37558348 414.28002922 -267.3840332 424.48681641 C-267.38531008 426.0202316 -267.38531008 426.0202316 -267.38661275 427.58462487 C-267.39987806 444.20801125 -267.39478215 460.83134987 -267.38396164 477.45473577 C-267.37333133 494.5754072 -267.38550223 511.69595949 -267.41804391 528.81660354 C-267.43728815 539.35188836 -267.43837177 549.88685419 -267.41588763 560.42213403 C-267.40214094 567.62838799 -267.41028135 574.83440884 -267.43561222 582.04063059 C-267.44954557 586.19406414 -267.45379556 590.34690867 -267.43178749 594.50032043 C-267.41182654 598.30581571 -267.41971648 602.11022444 -267.44926361 605.91564797 C-267.4578294 607.93500262 -267.43700223 609.95441689 -267.41493863 611.97366917 C-267.51469627 620.15514007 -268.95180033 625.84414596 -274.2109375 632.2421875 C-281.79632667 639.22694829 -289.74722439 639.54034727 -299.68286133 639.53271484 C-300.93724503 639.53943207 -302.19162872 639.54614929 -303.48402405 639.55307007 C-306.91399004 639.56878535 -310.34371383 639.57542349 -313.77369905 639.57670164 C-315.92028154 639.57812654 -318.06683891 639.58240254 -320.21341515 639.58769608 C-327.71268695 639.60618162 -335.21188781 639.61436862 -342.71118164 639.61279297 C-349.68448222 639.61159225 -356.65747295 639.63268451 -363.63069516 639.6642803 C-369.63177111 639.69049528 -375.63274617 639.70115807 -381.63387889 639.69988215 C-385.21179309 639.69937401 -388.78943179 639.70497456 -392.36728859 639.72623825 C-396.3620153 639.74933275 -400.35605468 639.74006802 -404.35083008 639.72802734 C-405.52464233 639.73926636 -406.69845459 639.75050537 -407.90783691 639.76208496 C-416.24849504 639.69833373 -422.56541779 638.32062637 -429.0234375 632.8671875 C-434.01881495 626.87273456 -436.33230937 622.42945376 -436.33973867 614.63159543 C-436.34301086 613.72846888 -436.34628305 612.82534234 -436.34965441 611.89484832 C-436.34817078 610.9097303 -436.34668716 609.92461229 -436.34515858 608.90964222 C-436.34751081 607.85332378 -436.34986304 606.79700535 -436.35228655 605.70867726 C-436.358979 602.14535896 -436.35851825 598.58207711 -436.35810852 595.01875305 C-436.36140698 592.44768871 -436.36513251 589.87662488 -436.36925 587.30556172 C-436.37857538 580.96524541 -436.38249794 574.62493608 -436.38476897 568.28461377 C-436.38773116 560.69150095 -436.39642861 553.09839739 -436.40518325 545.50528943 C-436.42602693 527.15282214 -436.43649694 508.80035325 -436.44531285 490.4478769 C-436.44951908 481.76710587 -436.45474107 473.08633554 -436.45999738 464.40556509 C-436.47788664 434.69409868 -436.49288336 404.98263207 -436.50031757 375.27116108 C-436.50079233 373.40591038 -436.50126822 371.54065967 -436.50174524 369.67540897 C-436.50198161 368.75040885 -436.50221799 367.82540874 -436.50246153 366.87237832 C-436.50366273 362.18583359 -436.50487818 357.49928886 -436.50610352 352.81274414 C-436.50634367 351.88268432 -436.50658382 350.9526245 -436.50683124 349.99438105 C-436.51472601 319.83254619 -436.53816197 289.67075062 -436.57065946 259.50893292 C-436.60495006 227.62471546 -436.62466795 195.740521 -436.62796181 163.8562848 C-436.62837936 160.35680305 -436.62885892 156.85732132 -436.62938499 153.35783958 C-436.62950819 152.49616042 -436.62963138 151.63448125 -436.6297583 150.74669059 C-436.63209116 136.87487954 -436.64775575 123.00311413 -436.66822684 109.13131935 C-436.68847321 95.19076046 -436.69396775 81.25025643 -436.68445621 67.30968557 C-436.6792368 59.02665693 -436.68513945 50.74381081 -436.70699088 42.46080841 C-436.72207149 36.27732587 -436.71627056 30.09402878 -436.70232036 23.91054728 C-436.69993217 21.40784047 -436.70433009 18.90511621 -436.71614901 16.40243617 C-436.73121192 13.00262317 -436.72163302 9.60372862 -436.70592213 6.20393848 C-436.71614433 5.2305263 -436.72636654 4.25711412 -436.73689851 3.2542046 C-436.66087084 -4.2754103 -435.0053352 -11.07782409 -430.38671875 -17.16015625 C-429.77183594 -17.66675781 -429.15695313 -18.17335938 -428.5234375 -18.6953125 C-427.92144531 -19.21996094 -427.31945313 -19.74460937 -426.69921875 -20.28515625 C-419.29341869 -24.66818077 -411.94506437 -25.19451985 -403.5 -25.14599609 C-402.36222107 -25.15125305 -401.22444214 -25.15651001 -400.05218506 -25.16192627 C-396.31329378 -25.1750663 -392.57483267 -25.16640907 -388.8359375 -25.15625 C-386.22477131 -25.15827245 -383.61360567 -25.16118531 -381.00244141 -25.16494751 C-375.5386901 -25.17038959 -370.07506086 -25.16325433 -364.61132812 -25.14892578 C-358.31452717 -25.13260214 -352.01801773 -25.13789176 -345.72122383 -25.154405 C-339.63806452 -25.16971317 -333.5550334 -25.16802451 -327.47186279 -25.1592598 C-324.89475463 -25.15726373 -322.31763898 -25.15969614 -319.74053955 -25.16669846 C-316.13411981 -25.17434794 -312.5282537 -25.16265889 -308.921875 -25.14599609 C-307.86498474 -25.15206879 -306.80809448 -25.15814148 -305.71917725 -25.16439819 C-296.81351252 -25.08847145 -289.73470342 -23.53696472 -282.81640625 -17.74609375 C-277.8327289 -11.57409431 -276.62794311 -5.82483584 -276.75683594 1.96289062 C-276.75625183 2.90040161 -276.75566772 3.8379126 -276.75506592 4.80383301 C-276.75783446 7.87742195 -276.78886832 10.9500197 -276.8203125 14.0234375 C-276.82777926 16.16434194 -276.83347014 18.30525325 -276.83746338 20.44616699 C-276.85268537 26.06212461 -276.89193778 31.6776639 -276.9362793 37.29345703 C-276.97730607 43.03151797 -276.99549021 48.76964695 -277.015625 54.5078125 C-277.0584352 65.75278727 -277.12664499 76.9974525 -277.2109375 88.2421875 C-276.5509375 88.2421875 -275.8909375 88.2421875 -275.2109375 88.2421875 C-275.12714844 87.60539062 -275.04335937 86.96859375 -274.95703125 86.3125 C-273.90989044 82.00332367 -272.11035436 78.14339672 -270.2734375 74.1171875 C-269.669552 72.79255493 -269.669552 72.79255493 -269.0534668 71.44116211 C-258.87632169 49.37135777 -246.8682669 28.11752068 -230.2109375 10.2421875 C-229.6962793 9.67983398 -229.18162109 9.11748047 -228.65136719 8.53808594 C-173.56509043 -51.15241694 -62.79372771 -53.1740196 0 0 Z " fill="#FFFFFF" transform="translate(3841.2109375,41.7578125)"/>
<path d="M0 0 C1.21579239 -0.00101212 1.21579239 -0.00101212 2.45614624 -0.00204468 C45.89178878 0.05496377 88.06254857 9.72077844 126.4375 30.25 C127.59378906 30.86359375 128.75007813 31.4771875 129.94140625 32.109375 C144.6017726 40.18174965 157.97107089 50.11773163 170.4375 61.25 C171.2411499 61.9610791 171.2411499 61.9610791 172.06103516 62.68652344 C184.88168223 74.07335741 196.19086056 86.50598328 206.4375 100.25 C207.16453125 101.22428955 207.16453125 101.22428955 207.90625 102.21826172 C215.95092698 113.09376416 222.88597092 124.42485693 229.4375 136.25 C229.82502441 136.93465332 230.21254883 137.61930664 230.61181641 138.32470703 C248.56237274 170.06303355 259.9036909 205.70535748 267.4375 241.25 C267.78868896 242.8906543 267.78868896 242.8906543 268.14697266 244.56445312 C271.06300753 258.45666775 273.07816789 272.40602147 274.6875 286.5 C274.77067474 287.22785706 274.85384949 287.95571411 274.93954468 288.70562744 C275.48558571 293.54979436 275.97776981 298.39686129 276.4375 303.25 C276.54352539 304.3541626 276.64955078 305.4583252 276.75878906 306.59594727 C277.86610278 320.25579315 277.68478841 333.99278598 277.6875 347.6875 C277.68794186 348.70986315 277.68794186 348.70986315 277.68839264 349.7528801 C277.68983324 370.40067482 277.43645865 390.77849881 274.4375 411.25 C274.33804077 411.94687927 274.23858154 412.64375854 274.1361084 413.36175537 C264.97012681 477.53598908 243.85943019 539.81051386 203.4375 591.25 C202.66792969 592.23355469 201.89835937 593.21710937 201.10546875 594.23046875 C189.08003024 609.24601629 175.58656185 623.39151306 160.4375 635.25 C159.45265625 636.04019531 158.4678125 636.83039062 157.453125 637.64453125 C104.2852197 679.93070506 35.91380583 696.03446775 -31.0390625 688.94140625 C-81.61289909 682.93520371 -129.76191749 662.81861877 -166.9921875 627.66796875 C-169.1933647 625.59725646 -171.43837099 623.63198793 -173.75 621.6875 C-178.45312748 617.59403719 -182.48565182 612.95558288 -186.5625 608.25 C-187.4184375 607.28191406 -188.274375 606.31382812 -189.15625 605.31640625 C-245.91534157 540.43563836 -270.53464064 446.35509933 -270.765625 361.6953125 C-270.76845238 360.97581295 -270.77127975 360.2563134 -270.77419281 359.51501083 C-270.78906556 355.6914816 -270.79836451 351.8679888 -270.80273438 348.04443359 C-270.80707406 344.96358098 -270.82080599 341.88301553 -270.84375 338.80224609 C-270.99949706 317.42964816 -270.07526764 296.48420156 -267.5625 275.25 C-267.45772339 274.36439392 -267.35294678 273.47878784 -267.24499512 272.56634521 C-266.69540066 268.06896787 -266.0431262 263.59712669 -265.3125 259.125 C-265.10343018 257.82481934 -264.89436035 256.52463867 -264.67895508 255.18505859 C-254.96008748 196.23630125 -233.35977436 138.02822524 -195.5625 91.25 C-195.07845703 90.64881348 -194.59441406 90.04762695 -194.09570312 89.42822266 C-182.74568379 75.45866868 -169.98115833 62.05924452 -155.5625 51.25 C-154.94391113 50.77675293 -154.32532227 50.30350586 -153.68798828 49.81591797 C-109.12990267 15.8452646 -55.70764783 0.04200267 0 0 Z M-55.75390625 152.59375 C-95.47303625 200.47434506 -93.80086628 273.42237049 -93.75 332.0625 C-93.74973312 332.75553726 -93.74946625 333.44857452 -93.74919128 334.16261292 C-93.72364114 387.24247346 -93.14577723 442.28860468 -76.5625 493.25 C-76.220979 494.30936768 -76.220979 494.30936768 -75.87255859 495.39013672 C-70.61658976 511.34099209 -63.12144922 526.93409305 -51.5625 539.25 C-50.84449219 540.04664063 -50.12648438 540.84328125 -49.38671875 541.6640625 C-39.15030972 552.53683798 -25.07554633 560.40609688 -9.93798828 561.42700195 C12.17037453 561.90996097 33.0230973 559.45649018 49.9375 543.8125 C51.81569949 541.99517815 53.62527947 540.13546896 55.4375 538.25 C56.17484375 537.50878906 56.9121875 536.76757812 57.671875 536.00390625 C88.2729755 503.68297645 93.89443614 449.41211951 96.4375 407.25 C96.47986786 406.5503009 96.52223572 405.85060181 96.56588745 405.12969971 C97.57111869 387.88647946 97.63927324 370.64144226 97.625 353.375 C97.62473312 352.65046757 97.62446625 351.92593513 97.62419128 351.17944717 C98.19586588 260.58902919 98.19586588 260.58902919 74.4375 174.25 C74.0345874 173.36876465 74.0345874 173.36876465 73.62353516 172.46972656 C68.99418744 162.53692866 63.25617138 154.89043419 55.4375 147.25 C54.59832031 146.36248047 54.59832031 146.36248047 53.7421875 145.45703125 C41.9818946 133.97381332 22.40871464 128.86325198 6.4375 128.25 C5.59316406 128.21003906 4.74882812 128.17007813 3.87890625 128.12890625 C-19.02043073 127.56390084 -40.03696274 135.78418475 -55.75390625 152.59375 Z " fill="#FFFFFF" transform="translate(3039.5625,4.75)"/>
<path d="M0 0 C1.61261719 -0.05607422 1.61261719 -0.05607422 3.2578125 -0.11328125 C11.9915737 0.91477487 19.7343367 6.3487024 27.25 10.625 C29.47636335 11.88056153 31.70293297 13.13575737 33.9296875 14.390625 C35.07405273 15.03708984 36.21841797 15.68355469 37.39746094 16.34960938 C54.80965439 26.17789043 72.32659643 35.73164085 90.10595703 44.87939453 C93.29718523 46.53100003 96.4698006 48.21546363 99.64038086 49.90625 C123.31865161 62.51053125 147.43415489 74.30804162 171.85668945 85.3951416 C174.02733214 86.38173769 176.19637193 87.37180148 178.36523438 88.36230469 C263.09272997 127.03047528 350.46715772 160.20880381 695.875 246.3125 C696.98002869 246.50050171 698.08505737 246.68850342 699.22357178 246.88220215 C777.81622656 260.20629669 857.34708993 268.39242089 936.9375 272.5 C937.64925385 272.53692963 938.36100769 272.57385925 939.09432983 272.61190796 C943.48228178 272.83512035 947.87091735 273.0287947 952.26098633 273.20535278 C954.08763647 273.28022633 955.91412676 273.35905796 957.74047852 273.44088745 C981.74970843 274.50210676 1005.76105616 274.50002267 1029.78955078 274.49780273 C1034.39766411 274.49772203 1039.00567683 274.5045911 1043.61376953 274.51831055 C1075.42047496 274.61136878 1107.11085953 273.98901264 1138.875 272.3125 C1139.61918938 272.27355495 1140.36337875 272.23460991 1141.13011932 272.19448471 C1149.96746279 271.7290031 1158.79698193 271.17880684 1167.625 270.5625 C1168.82362671 270.48013092 1170.02225342 270.39776184 1171.25720215 270.31289673 C1256.08652122 264.42896909 1340.48214499 252.88454533 1423.875 236.3125 C1424.82306519 236.12512268 1425.77113037 235.93774536 1426.7479248 235.74468994 C1539.09272405 213.5253852 1649.92994919 181.91371771 1814.6887207 117.4621582 C1815.34712952 117.18677216 1816.00553833 116.91138611 1816.68389893 116.62765503 C1818.4294977 115.89713866 1820.17297237 115.16155226 1821.91625977 114.42553711 C1830.69296924 111.12386053 1842.50152708 110.61167267 1851.375 113.9375 C1859.69917933 117.94595548 1865.54135324 123.06507537 1869.875 131.3125 C1872.40291807 138.89625422 1871.80026784 147.313783 1868.5 154.5 C1861.83805753 166.23917345 1851.11674316 173.2885655 1840.21972656 180.703125 C1837.86515049 182.31926051 1835.53554131 183.9660914 1833.2109375 185.625 C1820.06102801 194.99134202 1806.54097422 203.72100731 1792.875 212.3125 C1791.50359863 213.17705811 1791.50359863 213.17705811 1790.10449219 214.05908203 C1769.42855941 227.07033119 1748.31282401 239.21356904 1726.78027344 250.74658203 C1723.95087901 252.27160185 1721.13362344 253.8166321 1718.3203125 255.37109375 C1652.21309571 291.88503874 1581.27687965 320.02183048 1509.875 344.3125 C1509.14015381 344.56259827 1508.40530762 344.81269653 1507.64819336 345.07037354 C1480.00710202 354.45368388 1452.00120685 362.52147557 1423.875 370.3125 C1423.02162048 370.5496875 1422.16824097 370.786875 1421.28900146 371.03125 C1324.34767715 397.95039788 1223.83877693 414.97786688 1044.66796875 425.515625 C1042.38813761 425.52264461 1040.10830669 425.52973145 1037.82847595 425.53688049 C1030.57314781 425.55630656 1023.31785152 425.56131505 1016.0625 425.5625 C1014.82712242 425.56294186 1013.59174484 425.56338371 1012.31893158 425.56383896 C976.49361271 425.57056278 940.79000946 425.45200408 905.05950928 422.56896973 C901.68557236 422.29724413 898.31089035 422.03642506 894.93603516 421.77636719 C862.46610398 419.24493282 830.13547455 415.77395221 797.875 411.3125 C796.94631104 411.18486267 796.01762207 411.05722534 795.06079102 410.92572021 C744.86065491 404.00296305 695.10670225 394.29372824 645.875 382.3125 C644.95926208 382.09033813 644.04352417 381.86817627 643.10003662 381.63928223 C557.46351817 360.82544358 473.3559102 332.23503593 392.875 296.3125 C392.14063721 295.98485657 391.40627441 295.65721313 390.6496582 295.31964111 C351.10363662 277.65016526 311.85132884 258.95643462 274.26953125 237.3828125 C269.79297697 234.81762324 265.27207163 232.34705064 260.7277832 229.90429688 C247.51480336 222.79934897 234.67778222 215.12796139 221.875 207.3125 C220.7804248 206.64637695 219.68584961 205.98025391 218.55810547 205.29394531 C204.17423527 196.53379653 189.9213712 187.60450105 175.875 178.3125 C175.00504395 177.73757813 174.13508789 177.16265625 173.23876953 176.5703125 C161.70247127 168.93639579 150.22612398 161.2194189 138.875 153.3125 C138.20581543 152.84666504 137.53663086 152.38083008 136.84716797 151.90087891 C118.94790348 139.41488573 101.49552167 126.34796454 84.17529297 113.07373047 C82.19410824 111.55682677 80.20952926 110.04459421 78.22265625 108.53515625 C70.23322554 102.44185743 62.44227563 96.12231107 54.66113281 89.76660156 C52.30695724 87.85005294 49.93662212 85.9542608 47.5625 84.0625 C38.10669695 76.51044432 28.84317483 68.76045866 19.67773438 60.86083984 C17.90014087 59.33409309 16.11547985 57.81608292 14.328125 56.30078125 C-16.94479985 29.75410117 -16.94479985 29.75410117 -18.5625 16.8125 C-17.84279627 11.05487016 -15.76760145 6.87497455 -11.5625 2.875 C-7.6771755 0.38440737 -4.53365343 0.10181964 0 0 Z " fill="#FE9901" transform="translate(567.125,749.6875)"/>
<path d="M0 0 C0.68709913 -0.00235223 1.37419826 -0.00470446 2.08211857 -0.00712797 C4.39547693 -0.01381018 6.70877902 -0.01335998 9.02214622 -0.01294994 C10.69314134 -0.01624905 12.36413565 -0.01997472 14.03512895 -0.02409142 C18.63582559 -0.03411417 23.23650918 -0.03782866 27.83721519 -0.04048073 C32.79580665 -0.04438295 37.75438777 -0.05396133 42.71297264 -0.0626936 C54.69217502 -0.08246005 66.67137825 -0.09252433 78.65059286 -0.10142139 C84.29076509 -0.10580388 89.93093638 -0.11117078 95.57110786 -0.11641026 C114.31839427 -0.13342251 133.06568008 -0.14791703 151.81297302 -0.155159 C156.67846363 -0.15706891 161.54395422 -0.15898924 166.40944481 -0.16094494 C168.22340154 -0.16167055 168.22340154 -0.16167055 170.07400386 -0.16241082 C189.66706482 -0.17071239 209.26006475 -0.19605148 228.85309906 -0.22852562 C248.96523592 -0.26158859 269.07734175 -0.27960706 289.18950593 -0.28280324 C300.48321083 -0.28496901 311.77682672 -0.29372755 323.07050514 -0.31926441 C332.68805427 -0.34096095 342.30549277 -0.34902694 351.92306359 -0.33929763 C356.82961235 -0.33474996 361.73593282 -0.33666643 366.64245033 -0.35605907 C371.13700482 -0.37366996 375.63116412 -0.37270985 380.12572269 -0.35716178 C381.7489245 -0.35478257 383.37215353 -0.35912555 384.99531372 -0.37099043 C394.73400998 -0.43775017 403.73657284 -0.26583309 411.63258934 6.09906483 C412.14821434 6.75004139 412.66383934 7.40101795 413.19508934 8.07172108 C413.99946434 9.04431873 413.99946434 9.04431873 414.82008934 10.03656483 C418.12535561 15.07897388 418.49648377 19.67415764 418.50148582 25.58954334 C418.50980934 26.42931217 418.51813286 27.269081 418.5267086 28.13429737 C418.5507706 30.90645485 418.55957838 33.67837652 418.56618309 36.45062733 C418.57515604 38.38771602 418.584278 40.32480404 418.5935421 42.26189137 C418.61002697 46.3245763 418.61773065 50.38717892 418.62062645 54.44989491 C418.62599346 59.62905893 418.66360603 64.80743677 418.70937061 69.98637962 C418.73927996 73.99040435 418.74635309 77.9942435 418.7473526 81.99837017 C418.7515315 83.90596503 418.76387102 85.81356164 418.78487015 87.72104549 C418.89480789 98.57621669 418.57955698 107.37749436 413.19508934 117.13422108 C412.60727684 118.31113514 412.01946434 119.4880492 411.41383934 120.70062733 C405.56447614 130.8971309 398.93192934 140.50774515 392.19508934 150.13422108 C391.04267934 151.78651862 389.89033555 153.43886235 388.73805809 155.09125233 C385.81902384 159.27150644 382.89137936 163.44565905 379.96120262 167.6181078 C377.03487067 171.78713974 374.11533555 175.96092525 371.19508934 180.13422108 C370.03104866 181.79699677 368.86698614 183.45975717 367.70290184 185.12250233 C365.3426081 188.49425639 362.98334024 191.86672518 360.62477684 195.23968983 C354.67814805 203.74232573 348.71830032 212.23512813 342.72926903 220.70795155 C337.11923525 228.64901915 331.54898699 236.61787427 325.9773159 244.58588123 C323.05132201 248.76965168 320.12310624 252.95186631 317.19508934 257.13422108 C316.02841175 258.80088009 314.86174509 260.46754677 313.69508934 262.13422108 C306.69508934 272.13422108 299.69508934 282.13422108 292.69508934 292.13422108 C292.11742821 292.95946278 291.53976707 293.78470448 290.94460106 294.6349535 C289.7796057 296.29920935 288.61456674 297.96343469 287.44948387 299.62762928 C284.50688523 303.83093031 281.5650803 308.03478289 278.62477684 312.23968983 C272.67814805 320.74232573 266.71830032 329.23512813 260.72926903 337.70795155 C255.11923525 345.64901915 249.54898699 353.61787427 243.9773159 361.58588123 C241.05132201 365.76965168 238.12310624 369.95186631 235.19508934 374.13422108 C234.02841175 375.80088009 232.86174509 377.46754677 231.69508934 379.13422108 C210.69508934 409.13422108 210.69508934 409.13422108 208.94215965 411.63837147 C207.78521484 413.29117286 206.62831321 414.94400448 205.47145653 416.59686756 C202.40641404 420.97593236 199.34044113 425.35434215 196.27321434 429.73187733 C195.63255028 430.64646717 194.99188622 431.56105701 194.33180809 432.5033617 C193.10031214 434.26136679 191.86855328 436.01918775 190.63649559 437.7767992 C190.08348778 438.56634998 189.53047997 439.35590076 188.96071434 440.16937733 C188.2302993 441.21170521 188.2302993 441.21170521 187.4851284 442.27509022 C186.36999768 443.88215313 185.28011578 445.50668141 184.19508934 447.13422108 C185.37498436 447.11851063 186.55487938 447.10280018 187.77052879 447.08661366 C260.96002112 446.20228673 358.01470259 451.95727409 417.50758934 500.00922108 C425.70018326 508.05493582 429.37439824 519.45636701 429.49947166 530.68443775 C429.50013634 531.64408939 429.50080101 532.60374104 429.50148582 533.59247303 C429.50980934 534.62106434 429.51813286 535.64965565 429.5267086 536.70941639 C429.55073027 540.09715063 429.55957103 543.48469205 429.56618309 546.87250233 C429.57515502 549.23750839 429.58427697 551.60251388 429.5935421 553.96751881 C429.61001313 558.92113084 429.61772885 563.87467542 429.62062645 568.82831287 C429.62600963 575.15994453 429.66369618 581.49093806 429.70937061 587.8223896 C429.73918535 592.7064642 429.74635097 597.5903859 429.7473526 602.47454357 C429.7515457 604.80802999 429.76394315 607.14151725 429.78487015 609.4749136 C429.81187619 612.74634199 429.80693082 616.01630073 429.79445457 619.28778553 C429.81670601 620.71815395 429.81670601 620.71815395 429.83940697 622.17741871 C429.75701345 629.80563912 427.65660183 636.4759288 422.32243061 642.11333656 C417.22096379 646.72293156 412.94782301 647.53622762 406.14723778 647.46039295 C401.25771496 646.9201678 397.55083126 644.77594787 393.32008934 642.38422108 C341.17471535 614.81088313 282.6358102 601.08525602 224.19508934 596.13422108 C222.94526268 596.02618153 222.94526268 596.02618153 221.670187 595.91595936 C139.48684308 589.15256258 56.14470157 608.32856743 -16.67380714 646.09369373 C-21.67282736 648.53450301 -26.33753038 648.84099981 -31.80491066 648.13422108 C-38.3411736 645.57255739 -43.94266268 640.19451877 -46.86527729 633.82228184 C-47.81404209 631.10809828 -48.05846324 629.13977191 -48.06560707 626.28149891 C-48.07269188 625.33156559 -48.07977669 624.38163227 -48.08707619 623.40291309 C-48.08459877 622.37226231 -48.08212135 621.34161152 -48.07956886 620.27972889 C-48.08467979 619.18464512 -48.08979073 618.08956135 -48.09505653 616.96129322 C-48.10896657 613.33658865 -48.10799318 609.7120742 -48.10569191 606.08734608 C-48.10958103 603.55688882 -48.11391615 601.02643221 -48.11867714 598.49597645 C-48.12614457 593.18314708 -48.12598534 587.87038702 -48.12058449 582.55756092 C-48.1145784 576.45868831 -48.12676976 570.36004837 -48.14815456 564.26121545 C-48.16807478 558.35858085 -48.17092194 552.45603539 -48.16741943 546.55337238 C-48.16792897 544.06102169 -48.17309666 541.568667 -48.18323135 539.07633686 C-48.30300432 505.47038802 -40.5230069 482.61662383 -20.57834816 455.89593983 C-17.7884816 452.1426029 -15.12762689 448.30968666 -12.49241066 444.44672108 C-8.40639213 438.46048425 -4.27990737 432.50507132 -0.11741066 426.57172108 C5.00292279 419.27038708 10.10576769 411.95720648 15.19508934 404.63422108 C21.93569123 394.93727164 28.6999036 385.25712874 35.4773159 375.58588123 C38.38471023 371.43635681 41.28979642 367.28521694 44.19508934 363.13422108 C47.67054159 358.16859857 51.14640366 353.20326684 54.62477684 348.23968983 C60.8307001 339.38214481 67.02192215 330.51463178 73.19508934 321.63422108 C79.93581113 311.93735461 86.69990324 302.25712925 93.4773159 292.58588123 C96.38471023 288.43635681 99.28979642 284.28521694 102.19508934 280.13422108 C105.67054159 275.16859857 109.14640366 270.20326684 112.62477684 265.23968983 C118.8307001 256.38214481 125.02192215 247.51463178 131.19508934 238.63422108 C137.93581113 228.93735461 144.69990324 219.25712925 151.4773159 209.58588123 C154.38471023 205.43635681 157.28979642 201.28521694 160.19508934 197.13422108 C163.67054159 192.16859857 167.14640366 187.20326684 170.62477684 182.23968983 C176.99340372 173.15030025 183.35092061 164.05320088 189.69508934 154.94672108 C190.35363914 154.00272449 191.01218895 153.05872791 191.69069481 152.08612537 C192.3212075 151.18031727 192.9517202 150.27450916 193.60133934 149.34125233 C194.1511245 148.55210438 194.70090965 147.76295643 195.26735497 146.94989491 C196.96898172 144.4644768 198.64605559 141.96526858 200.31557274 139.45824146 C201.12479305 138.2433833 201.12479305 138.2433833 201.95036125 137.00398254 C202.36112152 136.38696126 202.77188179 135.76993998 203.19508934 135.13422108 C202.11502617 135.13275452 201.034963 135.13128796 199.92217064 135.12977695 C173.64024783 135.09317982 147.35845243 135.03372734 121.07663536 134.95031834 C108.36693167 134.91051129 95.65729005 134.87812721 82.94753075 134.86322498 C71.869533 134.85021716 60.79167173 134.82327456 49.71375084 134.77960801 C43.84821676 134.75697384 37.98285114 134.74131158 32.11726952 134.74233723 C26.59490844 134.74308267 21.07292003 134.72517801 15.55065536 134.69305325 C13.52543589 134.6845439 11.50017466 134.68281132 9.47494507 134.68841839 C6.70536293 134.69506412 3.93696446 134.67712388 1.16750145 134.65320301 C0.36981409 134.66096343 -0.42787327 134.66872385 -1.24973297 134.67671943 C-7.87064832 134.57578587 -13.01566724 132.53471977 -18.04709816 128.20453358 C-18.58592628 127.56258045 -19.12475441 126.92062733 -19.67991066 126.25922108 C-20.23420753 125.6224242 -20.78850441 124.98562733 -21.35959816 124.32953358 C-25.08351163 118.67321096 -25.09767927 113.00539435 -25.07956886 106.47626209 C-25.08723526 105.0434087 -25.08723526 105.0434087 -25.09505653 103.58160877 C-25.10892132 100.43371734 -25.10799816 97.2860456 -25.10569191 94.13812733 C-25.10958038 91.94386686 -25.11391536 89.74960714 -25.11867714 87.5553484 C-25.12613254 82.95978828 -25.12585285 78.364305 -25.12058449 73.76874256 C-25.11478903 67.88645915 -25.1317262 62.00449052 -25.15492916 56.12225914 C-25.16967674 51.59173723 -25.17053682 47.06129098 -25.16741943 42.53074932 C-25.16793207 40.36227196 -25.17315895 38.1937903 -25.18323135 36.02533627 C-25.19559886 32.99054218 -25.18880204 29.95635925 -25.17722511 26.92157459 C-25.18869072 25.58487972 -25.18869072 25.58487972 -25.20038795 24.22118092 C-25.13020874 15.87736109 -22.76494149 10.23285728 -16.80491066 4.13422108 C-11.06942533 0.73975017 -6.60064568 0.00962638 0 0 Z " fill="#FFFFFF" transform="translate(2279.80491065979,16.865778923034668)"/>
<path d="M0 0 C1.49593689 -0.00151062 1.49593689 -0.00151062 3.02209473 -0.00305176 C105.54063937 0.06627539 105.54063937 0.06627539 137.984375 26.7265625 C149.42420545 38.22302577 147.51883431 58.51071174 147.50219727 73.47021484 C147.02782136 155.13258774 115.79881685 243.79919085 69.1875 310.25 C68.39303323 311.40351091 67.59876343 312.5571575 66.8046875 313.7109375 C57.83686281 326.61554664 47.82752387 338.69470526 37.1875 350.25 C36.36507812 351.17554688 35.54265625 352.10109375 34.6953125 353.0546875 C30.40710578 357.86425674 26.11865588 362.43979909 21.16796875 366.5703125 C19.77736201 367.74972256 18.42836342 368.97911423 17.11328125 370.2421875 C8.83346038 378.1206526 0.51924158 382.99146411 -11.12109375 382.75390625 C-14.29952554 382.15881525 -16.23258463 381.1926807 -18.8125 379.25 C-21.75981884 374.82902174 -21.48032921 370.35801215 -20.8125 365.25 C-20.02094779 362.8061155 -19.18678415 360.45799015 -18.24609375 358.07421875 C-17.97949448 357.38146347 -17.7128952 356.68870819 -17.43821716 355.97496033 C-16.57131605 353.729964 -15.69302182 351.48968596 -14.8125 349.25 C-14.22861193 347.75637363 -13.6447906 346.26272117 -13.06103516 344.76904297 C-11.83071468 341.62793359 -10.5957733 338.48867844 -9.35839844 335.3503418 C41.2327221 224.13087533 41.2327221 224.13087533 44.3125 108.75 C39.87734339 98.78696703 32.09524815 94.72947348 22.3125 90.625 C-11.64555791 78.22951173 -51.46769142 80.44474945 -87 82 C-87.98803619 82.04323395 -88.97607239 82.0864679 -89.99404907 82.13101196 C-118.21636887 83.39781358 -146.31261925 85.70671543 -174.36328125 89.06640625 C-175.02587133 89.14567038 -175.68846142 89.2249345 -176.37112999 89.30660057 C-183.55229628 90.16747286 -190.73026798 91.05064146 -197.9050293 91.96362305 C-230.64371437 96.08178707 -230.64371437 96.08178707 -238.8125 91.25 C-241.17692016 88.41269581 -241.7656316 86.60486074 -242.25 82.9375 C-241.29283887 74.86999901 -237.0032889 69.27936787 -230.8125 64.25 C-165.49609114 16.32899837 -79.44147622 0.05630624 0 0 Z " fill="#FE9901" transform="translate(2473.8125,708.75)"/>
</svg>
