<?xml version="1.0" encoding="UTF-8"?>
<svg id="Layer_2" data-name="Layer 2" xmlns="http://www.w3.org/2000/svg" viewBox="0 0 295.39 58.65">
  <defs>
    <style>
      .cls-1 {
        fill: #e85025;
      }

      .cls-2 {
        fill-rule: evenodd;
      }
    </style>
  </defs>
  <g id="Layer_1-2" data-name="Layer 1">
    <g>
      <g>
        <path d="M248.15,42.52v-26.38h4.42v26.38h-4.42Z"/>
        <polygon points="240.73 16.13 240.73 19.55 228.63 19.55 228.63 42.51 224.23 42.51 224.23 19.55 212.18 19.55 212.18 16.13 240.73 16.13"/>
        <polygon points="212.91 42.52 207.91 42.52 195.78 19.45 183.63 42.52 179.14 42.52 193.54 16.13 198.25 16.13 212.91 42.52"/>
        <g>
          <path d="M143.32,42.51v-26.38h4.42v26.38h-4.42Z"/>
          <path class="cls-2" d="M149.86,32.23h6.57l10.73,10.28h6.54l-12.06-10.28h3.87c1.98,0,3.4-.4,4.27-1.2.88-.81,1.32-2.11,1.32-3.89v-5.89c0-1.8-.44-3.09-1.32-3.89-.87-.81-2.29-1.22-4.27-1.22h-15.66v3.42h13.93c1.08,0,1.82.21,2.22.62.42.4.62,1.1.62,2.1v3.84c0,1-.2,1.7-.6,2.1s-1.15.6-2.25.6h-13.93v3.42Z"/>
        </g>
        <g>
          <path d="M66.95,16.13v26.38h4.42v-26.38h-4.42Z"/>
          <polygon points="99.76 42.51 93.36 42.51 77.33 31.47 74.12 29.27 74.14 29.26 77.33 27.06 92.9 16.34 93.2 16.13 99.6 16.13 99.3 16.34 98.43 16.94 80.6 29.22 80.53 29.27 99.76 42.51"/>
        </g>
        <g>
          <rect x="266.07" y="16.13" width="4.42" height="26.38"/>
          <rect x="290.98" y="16.13" width="4.42" height="26.38"/>
          <polygon points="288.85 35.75 288.85 40.24 282.75 33.72 272.62 22.9 272.62 18.4 280.47 26.8 288.85 35.75"/>
        </g>
        <g>
          <polygon points="113.15 39.09 134.14 39.09 134.14 42.51 108.73 42.51 108.73 16.13 134.14 16.13 134.14 19.55 113.15 19.55 113.15 39.09"/>
          <rect x="115.26" y="27.61" width="18.87" height="3.42"/>
        </g>
      </g>
      <g>
        <polygon class="cls-1" points="41.26 24.99 37.45 25.26 34.88 25.45 30.12 25.78 30.12 25.78 26.48 26.04 26.42 26.17 26.16 26.73 25.81 27.47 25.5 28.13 25.48 28.13 25.26 27.52 24.94 26.64 24.77 26.16 24.25 24.73 23.81 23.48 23.26 21.98 29.43 19.74 30.84 19.22 30.16 18.18 30.16 18.18 29.68 17.43 24.3 9.15 22.43 6.27 22.43 0 23.59 1.54 25.93 4.64 32.45 13.3 33.6 14.83 35.61 17.49 39.4 22.52 41.26 24.99"/>
        <polygon class="cls-1" points="20.51 0 20.51 6.27 18.64 9.15 13.26 17.43 12.78 18.18 12.1 19.22 13.51 19.74 19.67 21.98 19.13 23.48 18.68 24.73 18.17 26.16 17.99 26.64 17.68 27.52 17.45 28.13 17.44 28.13 17.13 27.47 16.78 26.73 16.52 26.17 16.46 26.04 12.81 25.78 12.81 25.78 8.06 25.45 5.49 25.26 1.67 24.99 3.54 22.52 7.33 17.49 9.34 14.83 10.49 13.3 17.01 4.64 19.35 1.54 20.51 0"/>
        <path class="cls-1" d="M42.7,28.59l-.58.86-.38.56-1.98,2.94-.96,1.43-7.2,10.68-3.67,5.44-2.16,3.2-3.33,4.94v-12.3l.8-1.12.02-.03,1.32-1.85,4.25-5.97,4.65-6.53-3.56-2.36-1.8-1.19,2.83-.22h0l2.22-.18h0l2.52-.2.79-.06,4.84-.38h.02s.02,0,.02,0h.03s0,0,0,0c.21,0,.8.03,1.25.58t0,0s0,0,.01.02c.09.13.58.9.04,1.74Z"/>
        <path class="cls-1" d="M.25,28.59l.58.86.38.56,1.98,2.94.96,1.43,7.2,10.68,3.67,5.44,2.16,3.2,3.33,4.94v-12.3s-.8-1.12-.8-1.12l-.02-.03-1.32-1.85-4.25-5.97-4.65-6.53,3.56-2.36,1.8-1.19-2.83-.22h0l-2.22-.18h0l-2.52-.2-.79-.06-4.84-.38h-.02s-.02,0-.02,0h-.03s0,0,0,0c-.21,0-.8.03-1.25.58t0,0s0,0-.01.02c-.09.13-.58.9-.04,1.74Z"/>
      </g>
    </g>
  </g>
</svg>