<?xml version="1.0" encoding="UTF-8"?>
<svg id="Layer_2" data-name="Layer 2" xmlns="http://www.w3.org/2000/svg" viewBox="0 0 149.95 29.77">
  <defs>
    <style>
      .cls-1, .cls-2 {
        fill: #fff;
      }

      .cls-2 {
        fill-rule: evenodd;
      }

      .cls-3 {
        fill: #e85025;
      }
    </style>
  </defs>
  <g id="Layer_1-2" data-name="Layer 1">
    <g>
      <g>
        <path class="cls-1" d="M125.97,21.58v-13.39h2.24v13.39h-2.24Z"/>
        <polygon class="cls-1" points="122.2 8.19 122.2 9.92 116.06 9.92 116.06 21.58 113.83 21.58 113.83 9.92 107.71 9.92 107.71 8.19 122.2 8.19"/>
        <polygon class="cls-1" points="108.08 21.58 105.54 21.58 99.39 9.87 93.22 21.58 90.93 21.58 98.25 8.19 100.64 8.19 108.08 21.58"/>
        <g>
          <path class="cls-1" d="M72.75,21.58v-13.39h2.24v13.39h-2.24Z"/>
          <path class="cls-2" d="M76.07,16.36h3.34l5.45,5.22h3.32l-6.12-5.22h1.96c1.01,0,1.73-.2,2.17-.61.45-.41.67-1.07.67-1.98v-2.99c0-.91-.22-1.57-.67-1.98-.44-.41-1.16-.62-2.17-.62h-7.95v1.74h7.07c.55,0,.92.11,1.13.32.21.2.32.56.32,1.06v1.95c0,.51-.1.86-.3,1.06s-.58.3-1.14.3h-7.07v1.74Z"/>
        </g>
        <g>
          <path class="cls-1" d="M33.99,8.19v13.39h2.24v-13.39h-2.24Z"/>
          <polygon class="cls-1" points="50.64 21.58 47.39 21.58 39.25 15.98 37.63 14.86 37.63 14.85 39.25 13.74 47.16 8.29 47.31 8.19 50.56 8.19 50.41 8.29 49.96 8.6 40.92 14.83 40.88 14.86 50.64 21.58"/>
        </g>
        <g>
          <rect class="cls-1" x="135.07" y="8.19" width="2.24" height="13.39"/>
          <rect class="cls-1" x="147.71" y="8.19" width="2.24" height="13.39"/>
          <polygon class="cls-1" points="146.63 18.15 146.63 20.43 143.53 17.12 138.39 11.63 138.39 9.34 142.38 13.6 146.63 18.15"/>
        </g>
        <g>
          <polygon class="cls-1" points="57.44 19.85 68.09 19.85 68.09 21.58 55.19 21.58 55.19 8.19 68.09 8.19 68.09 9.92 57.44 9.92 57.44 19.85"/>
          <rect class="cls-1" x="58.51" y="14.02" width="9.58" height="1.74"/>
        </g>
      </g>
      <g>
        <polygon class="cls-3" points="20.95 12.69 19.01 12.82 17.71 12.92 15.29 13.09 15.29 13.09 13.44 13.22 13.41 13.28 13.28 13.57 13.1 13.95 12.94 14.28 12.94 14.28 12.82 13.97 12.66 13.52 12.57 13.28 12.31 12.55 12.08 11.92 11.81 11.16 14.94 10.02 15.65 9.76 15.31 9.23 15.31 9.23 15.06 8.85 12.33 4.65 11.39 3.18 11.39 0 11.97 .78 13.16 2.36 16.47 6.75 17.06 7.53 18.08 8.88 20 11.43 20.95 12.69"/>
        <polygon class="cls-3" points="10.41 0 10.41 3.18 9.46 4.65 6.73 8.85 6.49 9.23 6.14 9.76 6.86 10.02 9.99 11.16 9.71 11.92 9.48 12.55 9.22 13.28 9.13 13.52 8.97 13.97 8.86 14.28 8.85 14.28 8.7 13.95 8.52 13.57 8.39 13.28 8.36 13.22 6.5 13.09 6.5 13.09 4.09 12.92 2.79 12.82 .85 12.69 1.79 11.43 3.72 8.88 4.74 7.53 5.32 6.75 8.63 2.36 9.82 .78 10.41 0"/>
        <path class="cls-3" d="M21.67,14.51l-.3.44-.19.28-1.01,1.49-.49.72-3.66,5.42-1.86,2.76-1.1,1.63-1.69,2.51v-6.25l.41-.57h.01s.67-.95.67-.95l2.16-3.03,2.36-3.32-1.81-1.2-.91-.61,1.44-.11h0l1.13-.09h0l1.28-.1.4-.03,2.46-.19h0s.01,0,.01,0h.02s0,0,0,0c.11,0,.4.01.63.3t0,0s0,0,0,0c.04.06.29.45.02.88Z"/>
        <path class="cls-3" d="M.13,14.51l.3.44.19.28,1.01,1.49.49.72,3.66,5.42,1.86,2.76,1.1,1.63,1.69,2.51v-6.25s-.41-.57-.41-.57h-.01s-.67-.95-.67-.95l-2.16-3.03-2.36-3.32,1.81-1.2.91-.61-1.44-.11h0l-1.13-.09h0l-1.28-.1-.4-.03-2.46-.19h0s-.01,0-.01,0h-.02s0,0,0,0c-.11,0-.4.01-.63.3t0,0s0,0,0,0c-.04.06-.29.45-.02.88Z"/>
      </g>
    </g>
  </g>
</svg>